<svg xmlns="http://www.w3.org/2000/svg" xmlns:xlink="http://www.w3.org/1999/xlink" width="1152" height="321" viewBox="0 0 1152 321"><defs><clipPath id="b"><rect width="1152" height="321"/></clipPath></defs><g id="a" clip-path="url(#b)"><g transform="translate(5.985 10.133)"><path d="M10589.281,1149.967c.374-75.919.187-73.017,7.114-86.872,8.237-16.663,22.186-28.271,40.908-34.168,9.268-2.9,26.212-2.9,35.572,0,39.785,12.357,58.977,55.137,40.909,91.272-7.864,15.727-19.284,26.024-36.884,33.139-12.824,5.149-32.3,4.961-45.027-.374l-3.463-1.4v-30.33l5.429,5.242c7.864,7.676,12.076,9.642,21.251,9.642,6.365,0,8.236-.468,12.543-2.715,13.668-7.115,22-23.216,21.905-42.219-.093-13.761-5.991-28.271-14.791-35.947-16.475-14.416-39.223-8.612-49.333,12.638-5.242,11.046-5.43,14.323-5.43,81.255v61.035l-3.464,1.685c-6.646,3.183-19,6.178-25.462,6.178H10589Z" transform="translate(-9589.585 -924.289)" fill="#0090b5"/><path d="M3003.188,935.04c-18.91-3.183-37.913-15.352-49.146-31.454-10.2-14.791-14.042-27.147-14.042-44.84.094-22.748,7.676-40.44,24.245-55.98,14.135-13.293,29.769-20.033,48.865-21.063,17.974-.936,32.109,3,47.18,13.106a77.452,77.452,0,0,1,31.922,45.4c2.247,8.706,2.247,9.642,2.247,49.9,0,38.475-.094,41.1-1.591,41.1-9.174,0-23.4-3.276-31.36-7.021l-3.37-1.685-.374-38.475-.375-38.474-2.434-6.74a53.169,53.169,0,0,0-12.638-20.969c-20.688-21.812-50.644-12.45-62.814,19.565-2.247,5.71-2.434,7.583-2.434,20.314-.094,15.54.655,19,6.646,30.7,3.838,7.3,12.357,15.727,19.471,19.378,4.025,2.059,5.9,2.34,14.042,2.34,11.8,0,15.914-1.872,25.556-11.421l6.74-6.834v37.351l-9.08,2.9c-7.77,2.528-10.953,3-20.875,3.276A133.777,133.777,0,0,1,3003.188,935.04Z" transform="translate(-2656.623 -702.061)" fill="#0090b5"/><path d="M6706,934.125a77.571,77.571,0,0,1-41.376-20.314c-16.569-15.82-24.62-33.981-24.62-55.886,0-36.977,24.714-67.962,60.66-76.2,8.519-1.966,23.591-1.966,32.3,0,26.679,5.9,48.4,29.581,48.4,52.8,0,31.36-36.321,50.457-84.626,44.653l-9.268-1.123-1.217-4.213c-1.5-4.868-3.65-20.407-3-21.156.28-.187,4.212.187,8.706,1.03,15.539,2.715,34.262,1.4,42.968-3a44.643,44.643,0,0,0,6.74-5.149c11.607-10.765,7.207-28.645-8.987-36.228-4.587-2.153-6.365-2.434-15.446-2.434-9.36,0-10.766.281-15.914,2.715-13.012,6.272-21.718,20.595-23.964,39.411-3,25.556,7.3,48.21,25.93,57.2,6.272,3,7.3,3.183,16.1,3.183,12.638,0,18.629-2.247,31.828-11.8,2.153-1.591,2.247-1.5,10.766,6.927l8.519,8.519-1.872,2.06c-2.341,2.621-10.859,8.425-16.944,11.514-10.3,5.149-18.629,7.208-31.173,7.583C6714.047,934.406,6707.588,934.312,6706,934.125Z" transform="translate(-6010.259 -700.865)" fill="#0090b5"/><path d="M64.044,231.014C39.7,224.554,21.825,207.33,12.932,182.054l-3.37-9.548-.281-78.26L9,15.987l5.429-2.34A68.636,68.636,0,0,1,38.113,7.562L45.509,7l.281,81.817.281,81.817,2.247,6.553c4.587,13.667,10.765,22.186,19.565,26.96,8.331,4.493,20.22,4.774,28.458.562,5.336-2.715,11.889-9.642,15.352-16.1l2.9-5.523,4.306,8.8a90.1,90.1,0,0,0,9.174,14.7l4.868,5.9-2.434,2.059a70.747,70.747,0,0,1-9.548,7.114,107.165,107.165,0,0,1-14.7,7.4C95.872,233.167,75.652,234.1,64.044,231.014Z" fill="#0090b5"/><path d="M1244.325,230.92a72.349,72.349,0,0,1-36.977-23.122c-5.055-6.085-11.889-18.067-13.761-23.871-4.025-13.2-3.838-9.361-4.213-90.616L1189,15.987l5.429-2.34a68.636,68.636,0,0,1,23.684-6.085l7.4-.562.374,81.349c.281,75.077.375,81.817,1.966,86.966,4.025,13.574,12.076,24.9,20.875,29.3,7.489,3.838,19.752,4.119,26.773.562,8.331-4.306,15.914-13.293,19.471-23.309,4.493-12.544,4.587-14.135,4.587-92.3V15.893l4.493-1.872c10.2-4.306,20.407-6.74,29.02-6.74H1337v73.3c0,84.719-.374,90.429-6.646,105.782-9.174,22.654-27.522,38.755-50.925,44.653C1269.413,233.541,1254.06,233.447,1244.325,230.92Z" transform="translate(-1069.538)" fill="#0090b5"/><path d="M9137.022,1185.534c-17.5-4.4-32.482-16.289-40.253-31.922-6.927-13.948-7.114-15.072-7.488-52.61l-.281-33.326,7.3-2.808c6.271-2.434,17.506-4.868,22.187-4.868,1.216,0,1.4,4.961,1.685,36.321.375,30.611.655,37.07,1.966,41.845,5.242,18.254,15.727,28.177,29.675,27.99,11.046-.094,20.033-6.553,25.743-18.629,4.774-10.11,5.149-13.48,5.149-47.742v-31.36l3.744-1.872c6.646-3.37,18.816-6.553,25.556-6.553,1.5,0,1.592,2.34,1.592,35.853,0,32.3-.187,36.415-1.872,42.781-5.9,22.935-22.747,40.44-44.466,46.338C9158.554,1187.406,9145.167,1187.593,9137.022,1185.534Z" transform="translate(-8230.003 -954.427)" fill="#0090b5"/><path d="M4800,134.581V28.425l3.932-1.966a64.449,64.449,0,0,1,26.3-6.459h6.272V125.126c0,99.041-.094,105.313-1.591,106.718-4.119,3.651-17.693,7.489-29.488,8.519l-5.43.468Z" transform="translate(-4342.505 -11.783)" fill="#0090b5"/><path d="M5353.018,966.534c0-10.11-.469-20.969-.937-24.058-2.153-13.106-7.863-22.654-17.505-29.207-7.3-4.868-13.948-6.834-23.122-6.834-10.953,0-20.875,5.149-28.271,14.884L5280,925.438V906.622c0-17.037.188-18.91,1.685-19.752,4.493-2.34,14.135-4.681,23.684-5.71a112.618,112.618,0,0,0,13.293-2.059c3.838-1.5,7.114-6.459,17.411-26.679l5.8-11.421,6.271.468a69.1,69.1,0,0,1,21.718,5.336l4.587,2.059L5363.6,870.769l-10.859,21.905,2.714,1.966c12.17,8.893,20.314,18.254,26.586,30.986,5.336,10.578,7.489,21.25,7.489,37.164v12.919l-3.745,1.872c-7.114,3.651-16.943,6.178-26.4,6.927l-6.365.468Z" transform="translate(-4777.571 -755.928)" fill="#0090b5"/></g></g></svg>